<svg xml:space="preserve" style="enable-background:new 0 0 456.13 201.59;" viewBox="0 0 456.13 201.59" y="0px" x="0px" xmlns:xlink="http://www.w3.org/1999/xlink" xmlns="http://www.w3.org/2000/svg" id="Layer_1" version="1.1">
<style type="text/css">
	.st0{fill:#6192AB;}
	.st1{fill:#FFFFFF;}
	.st2{fill:#192026;}
</style>
<path d="M415.96,119.16c-2.54,4.24-6.1,6.27-10.51,5.59c-4.07-0.85-6.95-3.05-6.95-11.02V67.8h17.97v-6.61H398.5V32.54
	c0,0-2.37,0-5.25,0c-3.4,17.49-17.33,26.93-33.2,28.48h-21.62c-0.51-7.29-2.37-12.71-4.58-19.15c-3.39-9.32-0.85-17.97,7.8-17.97
	c11.7,0,9.49,14.58,7.29,19.49c6.61,2.37,19.32,2.88,20.68-7.8c1.36-12.03-12.2-17.8-26.95-17.8c-24.92,0-31.53,18.14-31.53,42.38
	v0.75h-14.07v0.01h-21.3c0,0-0.01,4.36-0.01,6.74c8.81,0,12.71,1.69,8.98,11.02l-13.05,32.55l-15.09-32.55
	c-3.39-8.31-1.36-11.02,6.1-11.02c0-1.36,0.01-6.74,0.01-6.74h-32.92c0-0.01,0-0.02,0-0.02h-25.99c0,0,0.12,4.22,0.12,6.6
	c8.98,0,12.71,1.69,8.98,11.02l-14.24,34.41l-11.7-34.41c-2.88-8.47,0.51-11.02,8.14-11.02c0-1.36-0.12-6.6-0.12-6.6h-49.67
	c0,0,0.12,4.22,0.12,6.6c8.47,0,10,3.9,13.05,11.02l2.03,4.92l-12.37,29.83l-14.41-34.75c-3.39-8.31-0.68-11.02,6.95-11.02
	c0-1.36-0.12-6.6-0.12-6.6l-67.23-0.03c-0.58-0.02-1.15-0.05-1.71-0.05C57.47,60.7,42.55,64.32,40.55,80.1
	c-1.83,15.62,12.53,22.76,23.07,28.27c11.17,5.84,18.36,8.44,17.2,16.9c-0.67,5.21-7.56,8.47-16.2,7.99
	c-6.4-0.48-13.75-2.42-14.69-6.81c-0.94-4.88,2.28-8.3,6.92-7.98c-0.13-6.51-3.46-12.52-11.62-13.65
	c-9.75-1.45-17.16,7.66-14.81,17.58c2.51,10.73,20.41,16.08,33.69,16.71c16.32,0.96,36.66-2.97,39.94-18.91
	c3.77-18.22-13.33-24.38-24.5-30.71c-11.01-6.17-14.82-7.18-13.99-13.53c0.46-4.13,9.24-7.23,15.06-7.28c0,0,0.1,0,0.1,0
	c0.25,0,0.65,0.01,0.9,0.01l0.87,0.02c3.82,0.1,8.44,0.53,12.58,1.92c1.68,0.68,3.26,1.48,4.66,2.39c1.49,1.09,3.55,2.96,5.3,5.89
	c0.02,0.06,0.05,0.11,0.08,0.17l1.53,3.27l0.31,0.69c0.02,0.05,0.04,0.1,0.05,0.15l0.01,0l25.01,55.24h11.53l19.83-47.37
	l18.98,47.37h11.53L219,78.53c1.47-3.6,2.13-6.29,3.35-8.12c0.15-0.17,0.41-0.39,0.72-0.39c0.37,0.01,0.67,0.29,0.84,0.5
	c0.86,1.22,1.74,2.97,2.85,5.46l33.22,65.43c-5.59,13.56-12.03,18.99-19.49,19.83c-6.95,0.51-12.04-2.03-15.09-7.46
	c-5.42,2.54-12.54,10.68-8.82,20.68c2.37,6.1,8.98,8.65,14.92,8.65c18.31,0,27.8-25.43,34.75-43.22l24.58-61.19
	c2.63-6.57,6.08-10.64,14-10.89h6.29v45.94c0,10.68-1.69,19.49-14.58,19.49c0,2.03,0,4.75,0,4.75h59.33c0,0,0-2.71,0-4.75
	c-13.05,0-17.29-8.81-17.29-19.49V67.8h19.23h4.5h8.72c0,5.26,0,44.58,0,44.58c0,18.14,11.02,27.12,24.58,27.12
	c12.54,0,19.15-8.14,23.56-18.65L415.96,119.16z" class="st0"></path>
</svg>
